HIERARCHY
ROOT hip
{
	OFFSET 0.000000 0.000000 0.000000
	CHANNELS 6 Xposition Yposition Zposition Xrotation Zrotation Yrotation 
	JOINT abdomen
	{
		OFFSET 0.000000 3.422050 0.000000
		CHANNELS 3 Xrotation Zrotation Yrotation 
		JOINT chest
		{
			OFFSET 0.000000 8.486693 -0.684411
			CHANNELS 3 Xrotation Zrotation Yrotation 
			JOINT neck
			{
				OFFSET 0.000000 10.266162 -0.273764
				CHANNELS 3 Xrotation Zrotation Yrotation 
				JOINT head
				{
					OFFSET 0.000000 3.148285 0.000000
					CHANNELS 3 Xrotation Zrotation Yrotation 
					End Site
					{
						OFFSET 0.000000 3.148289 0.000000
					}
				}
			}
			JOINT lCollar
			{
				OFFSET 3.422053 6.707223 -0.821293
				CHANNELS 3 Yrotation Zrotation Xrotation 
				JOINT lShldr
				{
					OFFSET 3.285171 0.000000 0.000000
					CHANNELS 3 Zrotation Yrotation Xrotation 
					JOINT lForeArm
					{
						OFFSET 10.129278 0.000000 0.000000
						CHANNELS 3 Yrotation Zrotation Xrotation 
						JOINT lHand
						{
							OFFSET 8.486692 0.000000 0.000000
							CHANNELS 3 Zrotation Yrotation Xrotation 
							End Site
							{
								OFFSET 4.106464 0.000000 0.000000
							}
						}
					}
				}
			}
			JOINT rCollar
			{
				OFFSET -3.558935 6.707223 -0.821293
				CHANNELS 3 Yrotation Zrotation Xrotation 
				JOINT rShldr
				{
					OFFSET -3.148289 0.000000 0.000000
					CHANNELS 3 Zrotation Yrotation Xrotation 
					JOINT rForeArm
					{
						OFFSET -10.266159 0.000000 0.000000
						CHANNELS 3 Yrotation Zrotation Xrotation 
						JOINT rHand
						{
							OFFSET -8.349810 0.000000 0.000000
							CHANNELS 3 Zrotation Yrotation Xrotation 
							End Site
							{
								OFFSET -4.106464 0.000000 0.000000
							}
						}
					}
				}
			}
		}
	}
	JOINT lThigh
	{
		OFFSET 5.338403 -1.642589 1.368821
		CHANNELS 3 Xrotation Zrotation Yrotation 
		JOINT lShin
		{
			OFFSET -2.053232 -20.121670 0.000000
			CHANNELS 3 Xrotation Zrotation Yrotation 
			JOINT lFoot
			{
				OFFSET 0.000000 -19.300380 -1.231939
				CHANNELS 3 Xrotation Yrotation Zrotation 
				End Site
				{
					OFFSET 0.000000 -2.463878 4.653993
				}
			}
		}
	}
	JOINT rThigh
	{
		OFFSET -5.338403 -1.642589 1.368821
		CHANNELS 3 Xrotation Zrotation Yrotation 
		JOINT rShin
		{
			OFFSET 2.053232 -20.121670 0.000000
			CHANNELS 3 Xrotation Zrotation Yrotation 
			JOINT rFoot
			{
				OFFSET 0.000000 -19.300380 -1.231939
				CHANNELS 3 Xrotation Yrotation Zrotation 
				End Site
				{
					OFFSET 0.000000 -2.463878 4.653993
				}
			}
		}
	}
}
MOTION
Frames: 13
Frame Time: 0.049989
0.000000 43.528500 0.000000 0.000000 0.000000 0.000000 0.000000 0.000000 0.000000 0.000000 0.000000 0.000000 0.000000 0.000000 0.000000 0.000000 0.000000 0.000000 0.000000 0.000000 0.000000 0.000000 0.000000 0.000000 0.000000 0.000000 0.000000 0.000000 0.000000 0.000000 0.000000 0.000000 0.000000 0.000000 0.000000 0.000000 0.000000 0.000000 0.000000 0.000000 0.000000 0.000000 0.000000 0.000000 0.000000 0.000000 0.000000 0.000000 0.000000 0.000000 0.000000 0.000000 0.000000 0.000000 0.000000 0.000000 0.000000 0.000000 0.000000 0.000000 
0.000000 12.899376 32.389309 -71.015778 -0.004271 -179.996964 28.661264 0.219271 -0.003538 -31.275198 -0.001508 0.325439 -15.008757 0.000000 0.000000 -22.342703 -0.055549 -0.001506 -16.869045 23.911516 23.220688 16.713900 -12.573172 -107.785812 -85.013412 -0.014424 -33.002262 -9.029107 -26.886055 12.256526 16.850266 -23.936670 23.224621 -16.728563 12.571358 -107.783844 84.969452 -0.016463 -33.001610 9.021473 26.862299 12.237688 -114.007919 28.993668 -30.001160 132.413406 -2.387721 -0.183749 17.538521 1.748983 4.872131 -114.003540 -26.999872 30.001091 132.411514 2.357231 0.166560 17.531727 -1.737534 -4.891653 
0.000000 12.929748 32.306206 -71.009506 -0.004270 -179.996964 27.995617 0.219169 -0.003446 -31.650179 -0.001705 0.325812 -14.232613 0.000000 0.000000 -19.974754 -0.055323 -0.001148 -18.060038 23.487926 24.627182 16.599005 -12.458780 -107.770409 -84.651245 0.074872 -33.002499 -9.674788 -27.173288 13.036615 18.032549 -23.501905 24.626549 -16.612144 12.460614 -107.768997 84.608147 -0.104759 -33.001305 9.669511 27.155319 13.017891 -113.475037 29.333683 -29.925138 132.413406 -2.387721 -0.183749 17.538521 1.748983 4.872131 -113.462662 -27.229347 29.913050 132.411530 2.357231 0.166560 17.531727 -1.737534 -4.891653 
0.000000 12.960119 32.223103 -71.009506 -0.004270 -179.996964 27.329603 0.219068 -0.003353 -32.025188 -0.001899 0.326187 -13.455895 0.000000 0.000000 -17.600697 -0.055113 -0.000781 -19.236675 23.037365 26.020624 16.484184 -12.344352 -107.755241 -84.289047 0.164172 -33.003288 -10.326667 -27.452724 13.822536 19.200132 -23.040449 26.015135 -16.495800 12.349837 -107.754379 84.246811 -0.193065 -33.001560 10.323872 27.440510 13.804049 -112.939621 29.673222 -29.845201 132.413406 -2.387721 -0.183749 17.538521 1.748983 4.872131 -112.920067 -27.458158 29.822355 132.411514 2.357231 0.166560 17.531729 -1.737534 -4.891653 
0.000000 12.990491 32.139999 -71.009506 -0.004270 -179.996964 26.663284 0.218969 -0.003259 -32.400215 -0.002091 0.326562 -12.678677 0.000000 0.000000 -15.222540 -0.054917 -0.000404 -20.397890 22.560450 27.399956 16.369448 -12.229897 -107.740326 -83.926842 0.253473 -33.004650 -10.984582 -27.724215 14.614127 20.351995 -22.552944 27.389362 -16.379528 12.239027 -107.739983 83.885452 -0.281371 -33.002365 10.984405 27.717720 14.596012 -112.401611 30.012213 -29.761282 132.413406 -2.387721 -0.183749 17.538521 1.748983 4.872131 -112.375748 -27.686260 29.728992 132.411514 2.357231 0.166560 17.531727 -1.737534 -4.891653 
0.000000 13.020863 32.056896 -71.009506 -0.004270 -179.996964 25.996693 0.218870 -0.003163 -32.775246 -0.002281 0.326939 -11.901030 0.000000 0.000000 -12.842335 -0.054737 -0.000020 -21.542711 22.057878 28.764221 16.254793 -12.115416 -107.725662 -83.564613 0.342759 -33.006573 -11.648373 -27.987621 15.411234 21.487169 -22.040062 28.748274 -16.263338 12.128195 -107.725838 83.524086 -0.369671 -33.003727 11.650942 27.986807 15.393616 -111.860992 30.350622 -29.673368 132.413406 -2.387720 -0.183749 17.538519 1.748983 4.872131 -111.829727 -27.913647 29.632975 132.411514 2.357231 0.166560 17.531727 -1.737534 -4.891653 
0.000000 13.051234 31.973793 -71.009506 -0.004270 -179.996964 25.329872 0.218773 -0.003067 -33.150284 -0.002468 0.327317 -11.123021 0.000000 0.000000 -10.462128 -0.054573 0.000372 -22.670233 21.530371 30.112518 16.140211 -12.000902 -107.711205 -83.202370 0.432031 -33.009056 -12.317863 -28.242807 16.213678 22.604816 -21.502577 30.091055 -16.147224 12.017333 -107.711937 83.162712 -0.457958 -33.005650 12.323319 28.247641 16.196695 -111.317741 30.688398 -29.581417 132.413406 -2.387721 -0.183749 17.538521 1.748983 4.872131 -111.281975 -28.140253 29.534262 132.411514 2.357231 0.166560 17.531727 -1.737534 -4.891654 
0.000000 13.081606 31.890690 -71.009506 -0.004270 -179.996964 24.662870 0.218676 -0.002969 -33.525303 -0.002652 0.327697 -10.344731 0.000000 0.000000 -8.083973 -0.054425 0.000770 -23.779663 20.978722 31.444063 16.025715 -11.886363 -107.697021 -82.840134 0.521287 -33.012112 -12.992874 -28.489649 17.021280 23.704145 -20.941252 31.416910 -16.031183 11.906441 -107.698250 82.801346 -0.546233 -33.008133 13.001347 28.500071 17.005060 -110.771820 31.025478 -29.485376 132.413406 -2.387721 -0.183749 17.538521 1.748983 4.872131 -110.732513 -28.366058 29.432867 132.411514 2.357231 0.166560 17.531727 -1.737534 -4.891653 
0.000000 13.111978 31.807587 -71.009506 -0.004270 -179.996964 23.995733 0.218581 -0.002870 -33.900314 -0.002834 0.328077 -9.566219 0.000000 0.000000 -5.709912 -0.054295 0.001173 -24.870258 20.403734 32.758133 15.911291 -11.771796 -107.683060 -82.477913 0.610519 -33.015720 -13.673209 -28.728016 17.833847 24.784468 -20.356916 32.725163 -15.915218 11.795526 -107.684822 82.439987 -0.634488 -33.011169 13.684839 28.743998 17.818533 -110.223198 31.361811 -29.385229 132.413406 -2.387720 -0.183749 17.538521 1.748983 4.872131 -110.181351 -28.591032 29.328777 132.411514 2.357231 0.166560 17.531727 -1.737534 -4.891653 
0.000000 13.142349 31.724483 -71.009506 -0.004270 -179.996964 23.328501 0.218487 -0.002769 -34.275295 -0.003014 0.328459 -8.787565 0.000000 0.000000 -3.341966 -0.054181 0.001581 -25.941395 19.806273 34.054108 15.796946 -11.657204 -107.669334 -82.115685 0.699717 -33.019905 -14.358669 -28.957804 18.651180 25.845177 -19.750431 34.015232 -15.799328 11.684584 -107.671600 82.078621 -0.722712 -33.014759 14.373592 28.979284 18.636904 -109.671852 31.697344 -29.280926 132.413406 -2.387721 -0.183749 17.538521 1.748983 4.872131 -109.628487 -28.815134 29.221991 132.411514 2.357231 0.166560 17.531727 -1.737534 -4.891653 
0.000000 13.172721 31.641380 -71.009506 -0.004270 -179.996964 22.661230 0.218394 -0.002668 -33.775417 -0.003007 0.328399 -8.008842 0.000000 0.000000 -2.742337 -0.054196 0.001297 -26.024548 18.855129 34.615520 16.034615 -11.940650 -107.680458 -82.649475 0.535311 -33.013390 -14.615094 -29.040899 19.416252 25.925394 -18.789692 34.573017 -16.037542 11.962385 -107.682503 82.610565 -0.559246 -33.008629 14.643390 29.063482 19.401186 -109.117752 32.032028 -29.172432 132.413406 -2.387721 -0.183749 17.538521 1.748983 4.872131 -109.073921 -29.038324 29.112497 132.411514 2.357231 0.166560 17.531727 -1.737534 -4.891653 
0.000000 13.203093 31.558275 -71.009506 -0.004270 -179.996964 21.993963 0.218302 -0.002566 -33.275459 -0.002999 0.328339 -7.230116 0.000000 0.000000 -2.142577 -0.054207 0.001013 -26.097490 17.902569 35.172794 16.272617 -12.224074 -107.692810 -83.183342 0.370821 -33.008408 -14.873044 -29.121021 20.182566 25.995394 -17.827553 35.126717 -16.276075 12.240160 -107.694603 83.142540 -0.395696 -33.004005 14.914748 29.144554 20.166756 -108.560837 32.365795 -29.059702 132.413406 -2.387721 -0.183749 17.538521 1.748983 4.872131 -108.517654 -29.260578 29.000298 132.411514 2.357231 0.166560 17.531727 -1.737534 -4.891653 
0.000000 13.233464 31.475172 -71.009506 -0.004270 -179.996964 21.326738 0.218212 -0.002463 -32.775452 -0.002991 0.328279 -6.451464 0.000000 0.000000 -1.542719 -0.054215 0.000729 -26.160397 16.948856 35.726200 16.510950 -12.507463 -107.706375 -83.717285 0.206270 -33.004971 -15.132452 -29.198130 20.950039 26.055342 -16.864292 35.676601 -16.514935 12.517900 -107.707878 83.674606 -0.232092 -33.000912 15.187589 29.222460 20.933502 -108.001137 32.698601 -28.942728 132.413406 -2.387721 -0.183749 17.538521 1.748983 4.872131 -107.959732 -29.481863 28.885386 132.411514 2.357231 0.166560 17.531727 -1.737534 -4.891653 
